<svg width="70" height="78" viewBox="0 0 70 78" fill="none" xmlns="http://www.w3.org/2000/svg">
<path d="M34.6109 78C33.5361 78 32.5328 77.7134 31.6013 77.2118L22.0707 71.5508C20.6376 70.7625 21.3542 70.4759 21.7841 70.3326C23.7189 69.6876 24.0772 69.5443 26.0836 68.3978C26.2986 68.2545 26.5852 68.3261 26.8002 68.4695L34.1093 72.8406C34.396 72.9839 34.7542 72.9839 34.9692 72.8406L63.5609 56.2876C63.8475 56.1442 63.9908 55.8576 63.9908 55.4993V22.4649C63.9908 22.1066 63.8475 21.8199 63.5609 21.6766L34.9692 5.19523C34.6826 5.05191 34.3243 5.05191 34.1093 5.19523L5.51768 21.6766C5.23105 21.8199 5.08774 22.1782 5.08774 22.4649V55.4993C5.08774 55.7859 5.23105 56.1442 5.51768 56.2876L13.3284 60.802C17.5563 62.9518 20.2076 60.4437 20.2076 57.9357V25.3312C20.2076 24.9012 20.5659 24.4713 21.0675 24.4713H24.7221C25.152 24.4713 25.582 24.8296 25.582 25.3312V57.9357C25.582 63.5967 22.5007 66.893 17.1263 66.893C15.4782 66.893 14.1883 66.893 10.5338 65.1015L3.00964 60.802C1.14653 59.7271 0 57.7207 0 55.571V22.5365C0 20.3868 1.14653 18.3803 3.00964 17.3055L31.6013 0.752411C33.3927 -0.250804 35.8291 -0.250804 37.6206 0.752411L66.2122 17.3055C68.0753 18.3803 69.2218 20.3868 69.2218 22.5365V55.571C69.2218 57.7207 68.0753 59.7271 66.2122 60.802L37.6206 77.3551C36.689 77.785 35.6141 78 34.6109 78ZM43.4249 55.2843C30.8847 55.2843 28.305 49.5517 28.305 44.6789C28.305 44.249 28.6633 43.819 29.1649 43.819H32.8911C33.3211 43.819 33.6794 44.1057 33.6794 44.5356C34.2526 48.3335 35.9008 50.1966 43.4966 50.1966C49.5158 50.1966 52.0955 48.8351 52.0955 45.6105C52.0955 43.7474 51.379 42.3859 41.9917 41.4543C34.181 40.6661 29.3082 38.9463 29.3082 32.712C29.3082 26.9077 34.181 23.4681 42.35 23.4681C51.5223 23.4681 56.0367 26.621 56.61 33.5002C56.61 33.7152 56.5384 33.9302 56.395 34.1452C56.2517 34.2885 56.0367 34.4318 55.8218 34.4318H52.0955C51.7373 34.4318 51.379 34.1451 51.3073 33.7869C50.4474 29.8457 48.226 28.5558 42.35 28.5558C35.7575 28.5558 34.9692 30.8489 34.9692 32.5687C34.9692 34.6468 35.9008 35.2917 44.7864 36.4382C53.6004 37.5848 57.7565 39.2329 57.7565 45.3955C57.6849 51.7014 52.5255 55.2843 43.4249 55.2843Z" fill="#539E43"/>
</svg>
